PathFileType	4	(X/Y/Z)	C:/Users/opensim2020/Desktop/walking_exp_matlab/subject02_walking06_straight_03.trc																																																																																																																									
DataRate	CameraRate	NumFrames	NumMarkers	Units	OrigDataRate	OrigDataStartFrame	OrigNumFrames																																																																																																																					
100	100	4	41	mm	100	2007	223																																																																																																																					
Frame#	Time	LFHD			RFHD			LBHD			RBHD			C7			T10			CLAV			STRN			RBAK			LSHO			LUPA			LELB			LFRM			LWRA			LWRB			LFIN			RSHO			RUPA			RELB			RFRM			RWRA			RWRB			RFIN			LASI			RASI			LPSI			RPSI			LTHI			LKNE			LTIB			LANK			LHEE			LTOE			RTHI			RKNE			RTIB			RANK			RHEE			RTOE			*39			*40		
		X1	Y1	Z1	X2	Y2	Z2	X3	Y3	Z3	X4	Y4	Z4	X5	Y5	Z5	X6	Y6	Z6	X7	Y7	Z7	X8	Y8	Z8	X9	Y9	Z9	X10	Y10	Z10	X11	Y11	Z11	X12	Y12	Z12	X13	Y13	Z13	X14	Y14	Z14	X15	Y15	Z15	X16	Y16	Z16	X17	Y17	Z17	X18	Y18	Z18	X19	Y19	Z19	X20	Y20	Z20	X21	Y21	Z21	X22	Y22	Z22	X23	Y23	Z23	X24	Y24	Z24	X25	Y25	Z25	X26	Y26	Z26	X27	Y27	Z27	X28	Y28	Z28	X29	Y29	Z29	X30	Y30	Z30	X31	Y31	Z31	X32	Y32	Z32	X33	Y33	Z33	X34	Y34	Z34	X35	Y35	Z35	X36	Y36	Z36	X37	Y37	Z37	X38	Y38	Z38	X39	Y39	Z39	X40	Y40	Z40	X41	Y41	Z41
																																																																																																																												
1	0	-886.28351	1731.25256	1343.11963	-903.39429	1713.68005	1485.37354	-1016.01434	1658.90283	1320.05286	-1046.1001	1640.10559	1459.57446	-1079.58301	1520.98828	1384.03003	-1149.33374	1251.10425	1391.01538	-945.11975	1447.02356	1389.22253	-905.27814	1270.92126	1404.20703	-1154.93628	1353.18201	1444.26013	-990.80408	1491.9408	1214.03894	-972.64557	1291.91394	1131.20801	-943.88831	1150.81909	1122.76526	-884.16724	1031.46204	1134.51563	-794.87512	945.7196	1199.11609	-827.53223	924.67664	1157.9043	-782.86084	876.95148	1168.30408	-1026.5907	1487.93457	1577.00659	-1083.05383	1308.77649	1665.31653	-1080.85144	1165.12085	1700.67151	-1043.74268	1052.11865	1731.31519	-979.33759	932.30634	1725.38757	-1028.22302	923.18793	1750.55737	-983.30481	868.38751	1763.68628	-931.89313	970.67322	1279.15771	-938.59814	976.36658	1535.72668	-1140.23853	1026.64648	1350.84705	-1149.8053	1031.98816	1464.60535	-1023.97473	656.56885	1259.0896	-1079.88733	462.30496	1304.57544	-1153.87646	281.88257	1311.64966	-1176.93347	63.29807	1368.64001	-1222.77307	38.04284	1414.7832	-1022.1676	27.809	1383.35364	-963.76825	688.66125	1640.5177	-907.59247	485.8421	1628.25659	-941.6817	302.07584	1641.07031	-943.05597	106.97181	1621.40356	-958.00037	46.44479	1562.46606	-799.28436	58.79162	1674.16821	-996.08905	1799.58936	1420.4408	2845.99878	1033.91785	-3357.22339
2	0.01	-877.64771	1729.85742	1344.86646	-894.50702	1712.15637	1487.14246	-1007.39355	1657.70984	1321.88477	-1037.29419	1638.6814	1461.44324	-1071.09729	1519.75635	1386.05127	-1141.19202	1249.99133	1393.53796	-936.8269	1445.66772	1390.35974	-897.46588	1269.43433	1404.4696	-1146.52222	1352.27661	1446.7655	-983.24982	1490.91809	1215.57593	-964.36279	1291.14026	1132.96033	-934.28003	1150.39258	1124.21155	-872.98602	1031.71252	1136.4342	-782.09644	947.25256	1201.59851	-814.88019	925.60986	1160.54736	-769.71661	878.80322	1170.86865	-1016.86273	1486.34253	1578.71948	-1073.61609	1307.38647	1667.17871	-1072.22534	1163.80225	1702.43823	-1035.93042	1050.40381	1732.97949	-972.8277	929.7887	1726.74841	-1021.62061	921.33136	1752.2207	-977.22491	865.93756	1765.15308	-924.47211	969.9151	1279.50549	-928.2854	975.94739	1536.37402	-1132.4104	1025.13867	1353.61499	-1140.67334	1030.43579	1467.39001	-1019.13751	656.05658	1260.08752	-1076.32312	462.0015	1305.62732	-1152.07275	282.36383	1312.58008	-1176.73486	63.68953	1369.10718	-1223.04529	39.07957	1415.27356	-1022.06409	27.78545	1383.30054	-952.43237	687.52338	1641.01831	-894.69702	484.92624	1627.43384	-921.04517	300.18771	1643.39697	-914.53137	104.77171	1626.10498	-928.57111	43.2941	1568.24451	-767.41327	62.64927	1675.80774	-987.15668	1797.9729	1422.48364	2845.29614	1033.80261	-3360.37305
3	0.02	-869.02521	1728.49634	1346.65723	-885.59637	1710.59033	1488.9845	-998.55609	1656.29321	1323.83997	-1028.40601	1637.17322	1463.32788	-1062.63757	1518.53186	1388.12903	-1132.91077	1248.84473	1396.1405	-928.38086	1444.24316	1391.61707	-888.79022	1268.02454	1405.276	-1137.83911	1351.01025	1449.21838	-975.65344	1489.83911	1217.13379	-955.96216	1290.17419	1134.39331	-924.95941	1149.65259	1125.78418	-861.79767	1031.63757	1138.53418	-770.72931	948.32336	1203.49414	-802.96344	926.36243	1162.68774	-757.12378	880.34863	1173.05286	-1007.17761	1484.70825	1580.52563	-1064.38831	1306.09644	1669.06335	-1063.36975	1162.38635	1704.07373	-1028.10046	1048.4585	1734.52185	-966.14838	927.25555	1728.30713	-1014.96454	919.39124	1753.92944	-971.2124	863.47955	1766.66858	-917.25385	968.82642	1280.04541	-919.14642	974.80505	1536.26123	-1124.37793	1023.63147	1356.39075	-1131.3844	1028.82471	1470.27637	-1013.97583	655.10443	1261.17517	-1072.60535	461.7468	1306.67078	-1150.19629	282.85828	1313.54114	-1176.53833	64.14616	1369.5929	-1222.87744	39.76735	1416.1449	-1021.71796	27.69037	1383.12122	-941.30823	686.02814	1641.14709	-882.19629	484.02457	1626.58582	-900.81482	298.66669	1645.4093	-886.5285	103.29742	1630.54395	-899.21545	40.96853	1573.53101	-736.27222	67.23289	1677.04456	-978.31213	1796.52673	1424.61169	2845.15015	1033.71423	-3360.37622
4	0.03	-860.12531	1727.26233	1348.71191	-876.63171	1708.93384	1490.8562	-989.98248	1655.08423	1325.79492	-1019.54938	1635.69153	1465.28296	-1054.11292	1517.18677	1390.23865	-1124.44165	1247.55518	1398.87305	-919.82318	1442.76172	1392.9209	-880.17841	1266.5741	1406.06421	-1129.05237	1349.67786	1451.60901	-967.95581	1488.62903	1218.75171	-947.56506	1289.23547	1136.37256	-915.04584	1148.75952	1127.59973	-851.0567	1031.58752	1140.48267	-758.62183	949.74255	1205.97095	-791.16663	927.10919	1164.92651	-744.47968	881.59064	1175.27917	-997.50726	1482.98975	1582.32092	-1054.96045	1304.49011	1670.83801	-1053.91296	1160.31812	1705.39343	-1020.08606	1046.64954	1736.17664	-959.41376	924.59912	1729.80627	-1008.28851	917.42712	1755.73535	-965.10437	860.84851	1768.20837	-909.79047	967.87219	1280.724	-908.29309	974.21722	1537.12817	-1116.18689	1022.15546	1359.23535	-1121.9718	1027.25305	1473.22095	-1008.60065	654.35693	1262.19641	-1068.56763	461.30548	1307.80505	-1148.05334	283.3017	1314.52771	-1176.28101	64.72324	1369.84497	-1223.04456	40.84264	1416.71741	-1021.63318	27.51063	1383.28137	-930.47668	684.40863	1641.42126	-870.06915	483.1373	1625.83057	-881.05682	297.47406	1647.09155	-858.7442	102.58514	1634.26343	-870.30194	39.26553	1577.99194	-705.80017	72.17845	1677.3584	-969.52826	1795.23584	1426.80261	2845.88428	1034.03882	-3357.42065
